<mxfile host="Electron" modified="2024-05-14T06:54:02.950Z" agent="Mozilla/5.0 (Windows NT 10.0; Win64; x64) AppleWebKit/537.36 (KHTML, like Gecko) draw.io/24.4.0 Chrome/120.0.6099.109 Electron/28.1.0 Safari/537.36" etag="lkXEBTXAdL_IA72eFKnv" version="24.4.0" type="device">
  <diagram id="C5RBs43oDa-KdzZeNtuy" name="Page-1">
    <mxGraphModel dx="1098" dy="820" grid="1" gridSize="10" guides="1" tooltips="1" connect="1" arrows="1" fold="1" page="1" pageScale="1" pageWidth="827" pageHeight="1169" math="0" shadow="0">
      <root>
        <mxCell id="WIyWlLk6GJQsqaUBKTNV-0" />
        <mxCell id="WIyWlLk6GJQsqaUBKTNV-1" parent="WIyWlLk6GJQsqaUBKTNV-0" />
        <mxCell id="n4vD3fFOSPQbCt1qds4k-6" style="edgeStyle=orthogonalEdgeStyle;rounded=0;orthogonalLoop=1;jettySize=auto;html=1;entryX=0.5;entryY=0;entryDx=0;entryDy=0;" edge="1" parent="WIyWlLk6GJQsqaUBKTNV-1" source="WIyWlLk6GJQsqaUBKTNV-3" target="n4vD3fFOSPQbCt1qds4k-1">
          <mxGeometry relative="1" as="geometry" />
        </mxCell>
        <mxCell id="WIyWlLk6GJQsqaUBKTNV-3" value="result = {...}&lt;div&gt;x = x0+4*h&lt;/div&gt;&lt;div&gt;c = C(x0,y0)&lt;/div&gt;&lt;div&gt;i=4&lt;/div&gt;" style="rounded=1;whiteSpace=wrap;html=1;fontSize=12;glass=0;strokeWidth=1;shadow=0;" parent="WIyWlLk6GJQsqaUBKTNV-1" vertex="1">
          <mxGeometry x="185" y="120" width="120" height="60" as="geometry" />
        </mxCell>
        <mxCell id="n4vD3fFOSPQbCt1qds4k-9" value="Да" style="edgeStyle=orthogonalEdgeStyle;rounded=0;orthogonalLoop=1;jettySize=auto;html=1;entryX=0.5;entryY=0;entryDx=0;entryDy=0;" edge="1" parent="WIyWlLk6GJQsqaUBKTNV-1" source="WIyWlLk6GJQsqaUBKTNV-6" target="n4vD3fFOSPQbCt1qds4k-4">
          <mxGeometry relative="1" as="geometry" />
        </mxCell>
        <mxCell id="n4vD3fFOSPQbCt1qds4k-24" value="Нет" style="edgeStyle=orthogonalEdgeStyle;rounded=0;orthogonalLoop=1;jettySize=auto;html=1;entryX=0;entryY=0.5;entryDx=0;entryDy=0;" edge="1" parent="WIyWlLk6GJQsqaUBKTNV-1" source="WIyWlLk6GJQsqaUBKTNV-6" target="n4vD3fFOSPQbCt1qds4k-23">
          <mxGeometry relative="1" as="geometry" />
        </mxCell>
        <mxCell id="WIyWlLk6GJQsqaUBKTNV-6" value="error &amp;gt; epsilon?" style="rhombus;whiteSpace=wrap;html=1;shadow=0;fontFamily=Helvetica;fontSize=12;align=center;strokeWidth=1;spacing=6;spacingTop=-4;" parent="WIyWlLk6GJQsqaUBKTNV-1" vertex="1">
          <mxGeometry x="195" y="410" width="100" height="60" as="geometry" />
        </mxCell>
        <mxCell id="n4vD3fFOSPQbCt1qds4k-5" style="edgeStyle=orthogonalEdgeStyle;rounded=0;orthogonalLoop=1;jettySize=auto;html=1;entryX=0.5;entryY=0;entryDx=0;entryDy=0;" edge="1" parent="WIyWlLk6GJQsqaUBKTNV-1" source="n4vD3fFOSPQbCt1qds4k-0" target="WIyWlLk6GJQsqaUBKTNV-3">
          <mxGeometry relative="1" as="geometry" />
        </mxCell>
        <mxCell id="n4vD3fFOSPQbCt1qds4k-0" value="Начало" style="ellipse;whiteSpace=wrap;html=1;" vertex="1" parent="WIyWlLk6GJQsqaUBKTNV-1">
          <mxGeometry x="185" y="40" width="120" height="50" as="geometry" />
        </mxCell>
        <mxCell id="n4vD3fFOSPQbCt1qds4k-7" style="edgeStyle=orthogonalEdgeStyle;rounded=0;orthogonalLoop=1;jettySize=auto;html=1;entryX=0.5;entryY=0;entryDx=0;entryDy=0;" edge="1" parent="WIyWlLk6GJQsqaUBKTNV-1" source="n4vD3fFOSPQbCt1qds4k-1" target="n4vD3fFOSPQbCt1qds4k-2">
          <mxGeometry relative="1" as="geometry" />
        </mxCell>
        <mxCell id="n4vD3fFOSPQbCt1qds4k-1" value="&lt;div&gt;x = x0+i*h&lt;/div&gt;&lt;div&gt;i3 = f(x_-4, y_-4)&lt;/div&gt;&lt;div&gt;i2 = f(x_-3, y_-3)&lt;br&gt;&lt;/div&gt;&lt;div&gt;i1 = f(x_-2, y_-2)&lt;br&gt;&lt;/div&gt;&lt;div&gt;i0 = f(x_-1, y_-1)&lt;br&gt;&lt;/div&gt;" style="rounded=1;whiteSpace=wrap;html=1;fontSize=12;glass=0;strokeWidth=1;shadow=0;" vertex="1" parent="WIyWlLk6GJQsqaUBKTNV-1">
          <mxGeometry x="150" y="200" width="190" height="70" as="geometry" />
        </mxCell>
        <mxCell id="n4vD3fFOSPQbCt1qds4k-21" style="edgeStyle=orthogonalEdgeStyle;rounded=0;orthogonalLoop=1;jettySize=auto;html=1;entryX=0.5;entryY=0;entryDx=0;entryDy=0;" edge="1" parent="WIyWlLk6GJQsqaUBKTNV-1" source="n4vD3fFOSPQbCt1qds4k-2" target="WIyWlLk6GJQsqaUBKTNV-6">
          <mxGeometry relative="1" as="geometry" />
        </mxCell>
        <mxCell id="n4vD3fFOSPQbCt1qds4k-2" value="df1 = i0-i1&lt;div&gt;df2 = i0-2i1+i2&lt;/div&gt;&lt;div&gt;df3 = i0-3i1+3i2-i3&lt;/div&gt;&lt;div&gt;y = y_-1+h*i0+h^2/2*df1+5h^3/2*df2+&lt;/div&gt;&lt;div&gt;+3h^4/8*df3&lt;/div&gt;&lt;div&gt;error = answ(x,c)-y&lt;/div&gt;" style="rounded=1;whiteSpace=wrap;html=1;fontSize=12;glass=0;strokeWidth=1;shadow=0;" vertex="1" parent="WIyWlLk6GJQsqaUBKTNV-1">
          <mxGeometry x="140" y="290" width="210" height="90" as="geometry" />
        </mxCell>
        <mxCell id="n4vD3fFOSPQbCt1qds4k-22" style="edgeStyle=orthogonalEdgeStyle;rounded=0;orthogonalLoop=1;jettySize=auto;html=1;entryX=0;entryY=0.5;entryDx=0;entryDy=0;" edge="1" parent="WIyWlLk6GJQsqaUBKTNV-1" source="n4vD3fFOSPQbCt1qds4k-4" target="WIyWlLk6GJQsqaUBKTNV-3">
          <mxGeometry relative="1" as="geometry">
            <Array as="points">
              <mxPoint x="100" y="525" />
              <mxPoint x="100" y="150" />
            </Array>
          </mxGeometry>
        </mxCell>
        <mxCell id="n4vD3fFOSPQbCt1qds4k-4" value="h /= 2" style="rounded=1;whiteSpace=wrap;html=1;fontSize=12;glass=0;strokeWidth=1;shadow=0;" vertex="1" parent="WIyWlLk6GJQsqaUBKTNV-1">
          <mxGeometry x="185" y="510" width="120" height="30" as="geometry" />
        </mxCell>
        <mxCell id="n4vD3fFOSPQbCt1qds4k-17" value="Да" style="edgeStyle=orthogonalEdgeStyle;rounded=0;orthogonalLoop=1;jettySize=auto;html=1;" edge="1" parent="WIyWlLk6GJQsqaUBKTNV-1" source="n4vD3fFOSPQbCt1qds4k-13" target="n4vD3fFOSPQbCt1qds4k-16">
          <mxGeometry relative="1" as="geometry" />
        </mxCell>
        <mxCell id="n4vD3fFOSPQbCt1qds4k-20" value="Нет" style="edgeStyle=orthogonalEdgeStyle;rounded=0;orthogonalLoop=1;jettySize=auto;html=1;entryX=0.5;entryY=0;entryDx=0;entryDy=0;" edge="1" parent="WIyWlLk6GJQsqaUBKTNV-1" source="n4vD3fFOSPQbCt1qds4k-13" target="n4vD3fFOSPQbCt1qds4k-19">
          <mxGeometry relative="1" as="geometry" />
        </mxCell>
        <mxCell id="n4vD3fFOSPQbCt1qds4k-13" value="x &amp;lt; x2?&lt;div&gt;i &amp;lt; 1/h?&lt;/div&gt;" style="rhombus;whiteSpace=wrap;html=1;shadow=0;fontFamily=Helvetica;fontSize=12;align=center;strokeWidth=1;spacing=6;spacingTop=-4;" vertex="1" parent="WIyWlLk6GJQsqaUBKTNV-1">
          <mxGeometry x="355" y="490" width="100" height="60" as="geometry" />
        </mxCell>
        <mxCell id="n4vD3fFOSPQbCt1qds4k-18" style="edgeStyle=orthogonalEdgeStyle;rounded=0;orthogonalLoop=1;jettySize=auto;html=1;entryX=1;entryY=0.5;entryDx=0;entryDy=0;" edge="1" parent="WIyWlLk6GJQsqaUBKTNV-1" source="n4vD3fFOSPQbCt1qds4k-16" target="n4vD3fFOSPQbCt1qds4k-1">
          <mxGeometry relative="1" as="geometry">
            <Array as="points">
              <mxPoint x="555" y="235" />
            </Array>
          </mxGeometry>
        </mxCell>
        <mxCell id="n4vD3fFOSPQbCt1qds4k-16" value="i++" style="rounded=1;whiteSpace=wrap;html=1;fontSize=12;glass=0;strokeWidth=1;shadow=0;" vertex="1" parent="WIyWlLk6GJQsqaUBKTNV-1">
          <mxGeometry x="495" y="505" width="120" height="30" as="geometry" />
        </mxCell>
        <mxCell id="n4vD3fFOSPQbCt1qds4k-19" value="Конец" style="ellipse;whiteSpace=wrap;html=1;" vertex="1" parent="WIyWlLk6GJQsqaUBKTNV-1">
          <mxGeometry x="345" y="580" width="120" height="50" as="geometry" />
        </mxCell>
        <mxCell id="n4vD3fFOSPQbCt1qds4k-25" style="edgeStyle=orthogonalEdgeStyle;rounded=0;orthogonalLoop=1;jettySize=auto;html=1;entryX=0.5;entryY=0;entryDx=0;entryDy=0;" edge="1" parent="WIyWlLk6GJQsqaUBKTNV-1" source="n4vD3fFOSPQbCt1qds4k-23" target="n4vD3fFOSPQbCt1qds4k-13">
          <mxGeometry relative="1" as="geometry" />
        </mxCell>
        <mxCell id="n4vD3fFOSPQbCt1qds4k-23" value="result += {x: y}" style="rounded=1;whiteSpace=wrap;html=1;fontSize=12;glass=0;strokeWidth=1;shadow=0;" vertex="1" parent="WIyWlLk6GJQsqaUBKTNV-1">
          <mxGeometry x="345" y="425" width="120" height="30" as="geometry" />
        </mxCell>
      </root>
    </mxGraphModel>
  </diagram>
</mxfile>
